<?xml version="1.0" encoding="UTF-8"?>
<svg width="158px" height="196px" viewBox="0 0 158 196" version="1.1" xmlns="http://www.w3.org/2000/svg" xmlns:xlink="http://www.w3.org/1999/xlink">
    <!-- Generator: Sketch 42 (36781) - http://www.bohemiancoding.com/sketch -->
    <title>rancy icon</title>
    <desc>Created with Sketch.</desc>
    <defs></defs>
    <g id="Logo" stroke="none" stroke-width="1" fill="none" fill-rule="evenodd">
        <g id="rancy-icon" transform="translate(0.017391, 0.000000)">
            <path d="M25.4169169,185.563462 L132.167968,185.563462 L132.167968,10.0304574 L25.4169169,10.0304574 L25.4169169,185.563462 Z M142.334734,0 L142.334734,195.593919 L15.2501501,195.593919 L15.2501501,0 L142.334734,0 Z" id="Rectangle-3-Copy-6" fill="#111111" fill-rule="nonzero"></path>
            <rect id="Rectangle-4-Copy-13" fill="#000000" x="142.334734" y="0" width="15.2501501" height="15.0456861"></rect>
            <rect id="Rectangle-4-Copy-12" fill="#000000" x="0" y="180.548233" width="15.2501501" height="15.0456861"></rect>
            <path d="M114.329651,135.772271 C114.329651,111.949935 95.3991317,85.8406542 95.3991317,64.1146836 C95.3991317,55.1574851 99.6488402,43.1510276 109.500437,41.2452407 L106.989246,33.4315144 C93.0811089,35.9090374 86.7065462,52.4893835 86.7065462,64.8769983 C86.7065462,88.6993346 105.637066,114.808615 105.637066,136.725165 C105.637066,145.491784 101.387357,157.498242 91.5357604,159.404029 L94.0469518,167.217755 C107.955089,164.740232 114.329651,148.159886 114.329651,135.772271 Z" id="S-Copy-2" fill="#0FB6BC"></path>
            <polygon id="F-Copy-4" fill="#000000" points="75.8949138 93.2732232 56.3848884 93.2732232 56.3848884 42.5792916 75.8949138 42.5792916 75.8949138 35.1467227 48.0786399 35.1467227 48.0786399 165.502547 56.3848884 165.502547 56.3848884 100.896371 75.8949138 100.896371"></polygon>
        </g>
    </g>
</svg>